<svg xmlns="http://www.w3.org/2000/svg" viewBox="0 0 32 32" fill="none">
  <path d="M16 3c-.5 0-1 .3-1.2.8-.4.8-.2 1.8.3 2.8-2.5 1-4 3.2-4 5.8 0 3 1.5 6 4 9 1.2 1.5 2.2 3 2.7 4.4.1.4.3.4.4 0 .5-1.4 1.5-2.9 2.7-4.4 2.5-3 4-6 4-9 0-2.6-1.5-4.8-4-5.8.5-1 .7-2 .3-2.8C20.9 3.3 20.5 3 20 3c-1-.2-2.5.5-4 2.5C14.5 3.5 17 3 16 3z" fill="#f97316"/>
  <path d="M16 5.5c-1.5 2-2.5 4.5-2.5 7 0 2.5 1 4.8 2.5 7 1.5-2.2 2.5-4.5 2.5-7s-1-5-2.5-7z" fill="#eab308" opacity="0.7"/>
  <path d="M16 8c-.8 1.2-1.3 2.8-1.3 4.5 0 1.5.5 3 1.3 4.5.8-1.5 1.3-3 1.3-4.5S16.8 9.2 16 8z" fill="#fde68a" opacity="0.5"/>
</svg>
